<?xml version="1.0" standalone="no"?>
<!DOCTYPE svg PUBLIC "-//W3C//DTD SVG 20010904//EN"
 "http://www.w3.org/TR/2001/REC-SVG-20010904/DTD/svg10.dtd">
<svg version="1.0" xmlns="http://www.w3.org/2000/svg"
 width="1000.000000pt" height="785.000000pt" viewBox="0 0 1000.000000 785.000000"
 preserveAspectRatio="xMidYMid meet">

<g transform="translate(0.000000,785.000000) scale(0.100000,-0.100000)"
fill="#000000" stroke="none">
<path d="M4668 7385 c-3 -3 -261 -7 -574 -8 -436 -2 -574 -5 -591 -15 -26 -15
-30 -49 -9 -78 13 -17 25 -19 103 -16 48 2 101 -2 117 -8 21 -8 37 -7 63 2 31
11 36 11 49 -7 8 -10 14 -38 14 -62 0 -49 5 -52 83 -38 37 6 37 6 31 44 -4 24
-2 41 5 45 6 4 54 8 106 10 108 2 121 -4 111 -56 -11 -54 -18 -57 -122 -52
l-94 5 0 -33 c0 -18 -7 -55 -15 -82 -23 -75 -20 -91 21 -115 55 -33 34 -73
-30 -57 -12 3 -28 20 -37 38 -10 25 -20 33 -39 33 -20 0 -26 -6 -30 -30 -7
-40 -34 -44 -52 -9 -8 18 -25 31 -45 36 -40 10 -47 22 -32 49 9 17 8 24 -5 37
-12 13 -20 13 -41 4 -25 -12 -34 -45 -15 -57 6 -3 10 -38 10 -76 0 -62 -2 -70
-17 -67 -14 3 -18 13 -18 44 0 53 -19 77 -55 69 -33 -7 -61 16 -53 44 9 35
-14 61 -55 61 -69 0 -82 8 -82 50 0 41 -11 55 -51 65 -43 11 -59 -23 -59 -123
0 -69 4 -88 20 -109 18 -23 28 -73 15 -73 -14 0 -85 33 -85 40 0 22 -35 40
-76 40 -38 0 -47 -4 -62 -29 -38 -63 -131 -113 -145 -79 -7 19 2 32 30 47 13
6 20 17 17 25 -10 26 -36 27 -66 1 -16 -14 -36 -25 -43 -25 -18 0 -38 -37 -31
-56 3 -8 19 -20 36 -25 48 -17 37 -32 -19 -25 -59 8 -71 -5 -71 -76 0 -36 5
-48 30 -70 38 -33 38 -59 1 -97 -16 -17 -34 -38 -39 -48 -10 -16 -38 -18 -369
-20 -321 -3 -359 -5 -371 -20 -20 -27 -15 -32 39 -39 56 -7 74 -28 44 -50 -10
-8 -31 -14 -47 -14 -22 0 -29 -5 -33 -27 -15 -72 -19 -78 -58 -81 -35 -3 -39
0 -50 28 -16 41 -54 39 -77 -5 -8 -16 -19 -33 -25 -37 -12 -9 -74 -2 -127 14
-62 18 -68 7 -66 -141 1 -70 -2 -133 -6 -139 -11 -19 -71 -14 -89 6 -12 13
-17 37 -17 85 0 36 -3 68 -7 70 -5 2 -24 7 -43 11 -56 10 -73 -9 -78 -87 -4
-60 -2 -68 22 -92 32 -32 32 -42 2 -66 -22 -17 -25 -27 -24 -80 1 -49 6 -66
25 -90 l25 -29 -26 -30 c-19 -23 -24 -38 -20 -59 4 -18 0 -33 -11 -44 -14 -15
-46 -17 -254 -17 -171 0 -240 -3 -249 -12 -7 -7 -12 -29 -12 -49 0 -32 -9 -46
-80 -117 -79 -80 -80 -82 -80 -131 0 -48 -2 -51 -25 -51 -29 0 -45 26 -45 72
0 49 -15 58 -92 58 -54 0 -69 -3 -76 -17 -5 -10 -8 -84 -7 -165 2 -147 2 -148
29 -169 33 -26 33 -40 0 -59 l-27 -15 3 -370 c1 -203 2 -383 2 -400 -5 -336
-4 -418 7 -425 7 -4 137 -10 289 -13 261 -6 406 -18 426 -37 4 -4 -3 -16 -17
-25 -27 -17 -27 -32 3 -90 31 -61 130 -139 145 -115 4 6 12 10 20 10 19 0 35
-100 42 -267 3 -78 9 -147 13 -154 5 -6 27 -12 50 -13 29 -1 46 -7 54 -18 10
-17 -2 -31 -101 -118 -19 -16 -18 -344 1 -396 10 -29 11 -57 4 -114 -5 -41 -9
-171 -10 -289 -1 -230 0 -231 53 -231 14 0 33 -6 43 -13 18 -13 18 -15 1 -40
-9 -14 -25 -29 -36 -32 -26 -8 -25 -58 1 -100 20 -32 80 -65 118 -65 19 0 44
24 81 78 l22 32 -29 44 c-57 84 -51 106 27 110 28 2 54 5 57 9 3 3 7 97 9 209
4 264 14 304 74 289 33 -9 53 -69 38 -118 -6 -18 -7 -36 -3 -40 7 -7 84 -8
161 -1 17 1 85 1 153 0 119 -2 124 -3 147 -28 31 -33 31 -46 2 -80 -22 -26
-28 -27 -106 -25 -96 2 -111 -6 -111 -60 0 -30 -6 -42 -25 -55 -13 -9 -30 -14
-37 -11 -24 8 -48 -13 -48 -43 0 -23 5 -31 23 -35 40 -8 317 -17 685 -20 l363
-3 28 24 c37 31 66 30 103 -1 28 -24 36 -25 152 -25 110 0 125 2 141 20 23 25
36 25 58 0 23 -27 43 -25 63 5 9 14 22 25 29 25 7 0 20 -11 29 -25 16 -25 19
-25 146 -25 119 0 130 2 140 20 14 26 46 26 60 0 16 -29 65 -26 97 6 38 38 68
22 78 -43 4 -26 16 -70 26 -98 23 -59 24 -94 5 -101 -38 -14 -44 -124 -18
-299 l7 -50 104 -3 c58 -1 111 -8 118 -14 8 -6 13 -34 13 -72 0 -99 10 -136
36 -147 13 -4 24 -15 24 -23 0 -9 10 -21 23 -27 12 -6 34 -23 49 -37 15 -13
33 -22 41 -19 22 8 39 121 43 280 1 75 6 142 10 148 7 12 71 3 90 -12 6 -5 9
-39 6 -92 -5 -99 6 -119 62 -110 27 4 36 1 50 -18 22 -33 20 -62 -7 -87 -18
-17 -31 -21 -54 -16 -38 7 -53 -14 -53 -73 0 -65 0 -65 170 -58 84 3 161 10
172 16 18 10 20 18 14 77 -8 80 -8 92 0 249 4 86 10 126 20 134 20 16 17 39
-6 64 -25 27 -17 55 15 55 16 0 25 -7 29 -25 3 -13 16 -30 29 -36 12 -7 28
-20 35 -30 19 -28 78 -35 102 -14 19 17 19 19 4 37 -10 10 -23 18 -29 18 -7 0
-19 10 -27 22 -10 15 -32 26 -64 33 l-49 10 -3 48 c-3 44 -6 50 -36 62 l-33
14 5 76 c6 102 -24 98 -58 -9 -7 -21 -23 -54 -36 -74 -13 -19 -24 -39 -24 -43
0 -5 -9 -9 -20 -9 -37 0 -39 94 -4 162 11 21 13 44 9 82 -5 38 -3 61 8 82 8
16 18 59 22 97 8 77 13 80 106 75 l54 -3 3 -109 c2 -83 -1 -114 -12 -131 -18
-28 -12 -35 31 -35 26 0 36 6 45 25 9 21 18 25 54 25 33 0 46 -5 54 -20 6 -12
22 -25 36 -30 32 -12 31 -43 -2 -67 -40 -29 -23 -53 37 -53 l49 0 0 -38 c0
-55 23 -82 69 -82 52 0 60 23 22 58 -15 15 -31 35 -34 45 -4 10 -17 17 -32 17
-23 0 -25 3 -25 50 0 41 -5 55 -25 74 -14 13 -25 32 -25 42 0 10 -12 43 -27
72 -21 42 -25 58 -17 80 9 25 13 27 69 27 l60 0 27 -55 c35 -72 35 -91 -3
-119 l-31 -23 21 -22 c15 -16 21 -35 21 -69 0 -41 3 -49 24 -57 13 -5 27 -17
30 -28 4 -10 18 -24 32 -31 33 -15 30 -53 -6 -61 -15 -4 -26 -14 -28 -27 -2
-13 -14 -25 -33 -32 -32 -11 -37 -32 -14 -51 19 -16 45 3 45 31 0 13 7 19 24
19 26 0 36 -16 36 -60 0 -15 6 -32 13 -37 22 -18 68 -24 83 -12 16 13 19 49 4
49 -20 0 -50 41 -50 69 0 16 12 44 30 66 18 23 30 49 30 68 l0 30 -50 -6 c-59
-7 -72 7 -68 75 3 37 0 42 -22 48 -20 5 -25 12 -25 35 0 24 5 31 23 33 14 2
27 15 37 38 8 19 18 34 24 34 22 0 45 -139 27 -158 -10 -9 15 -32 35 -32 14 0
19 -7 19 -26 0 -19 7 -28 30 -37 22 -8 31 -20 36 -44 8 -43 0 -61 -31 -73 -19
-7 -25 -17 -25 -39 0 -35 9 -61 21 -61 4 0 19 11 32 24 13 12 29 25 36 27 9 3
15 29 17 83 3 71 1 79 -17 83 -11 3 -26 18 -34 34 -8 15 -25 29 -37 31 -19 2
-24 10 -26 44 -4 51 13 66 70 62 40 -3 44 -6 79 -63 39 -65 61 -78 78 -46 15
28 4 49 -30 56 -30 7 -35 19 -20 43 7 11 82 14 402 12 659 -3 962 0 995 11 21
6 40 6 58 -1 16 -6 127 -10 266 -10 232 0 240 -1 250 -21 7 -11 9 -27 6 -36
-3 -8 -1 -23 5 -34 8 -16 19 -19 57 -17 47 3 47 3 50 43 2 22 8 45 14 52 13
16 188 18 188 3 0 -26 -34 -91 -56 -105 -13 -8 -24 -25 -24 -37 0 -29 48 -78
77 -78 26 0 44 28 37 57 -8 29 16 70 71 123 l46 45 97 8 c116 11 141 11 253 2
74 -6 88 -5 103 10 15 15 16 27 10 64 -10 63 -6 466 7 691 8 138 8 214 0 300
-30 294 -32 343 -14 377 14 26 15 34 4 47 -8 9 -19 16 -27 16 -12 0 -34 29
-34 45 0 3 16 13 35 21 31 13 35 18 35 52 0 21 6 47 14 57 12 17 17 18 41 7
37 -17 55 -1 55 50 0 34 4 41 35 59 63 37 43 59 -55 59 -35 0 -62 5 -69 13 -6
9 -12 82 -13 197 l-3 184 -29 7 c-51 14 -56 52 -10 70 29 11 31 38 4 72 -11
14 -20 34 -20 46 0 12 -11 26 -29 35 -16 9 -31 24 -33 34 -7 24 8 52 27 52 18
0 75 49 75 64 0 7 9 21 20 31 16 14 29 16 71 11 29 -4 68 -15 88 -25 20 -10
65 -33 101 -51 39 -20 85 -35 115 -38 69 -6 78 7 73 102 -4 87 -19 110 -82
127 -39 11 -109 71 -131 113 -6 11 -19 23 -30 26 -11 3 -32 13 -46 23 -46 31
-83 -3 -50 -45 46 -58 31 -97 -40 -104 -24 -3 -50 -1 -58 4 -7 6 -20 49 -27
97 -14 83 -13 91 4 126 16 33 17 41 6 50 -21 17 -17 32 16 64 49 47 36 95 -25
95 -17 0 -36 5 -42 11 -6 6 -23 9 -39 7 -38 -4 -56 -48 -31 -75 13 -15 15 -31
10 -77 -5 -50 -9 -59 -32 -67 -14 -6 -42 -7 -63 -4 -35 6 -38 10 -38 38 0 47
-13 60 -54 59 -44 -2 -66 19 -66 62 0 48 -21 70 -66 70 -38 1 -39 2 -44 41 -3
22 -9 45 -13 52 -5 8 -53 11 -170 10 l-162 -2 -5 -42 c-4 -38 -10 -45 -45 -63
-21 -11 -42 -20 -46 -20 -12 0 -16 84 -6 114 9 25 13 28 43 23 40 -7 59 12 50
48 -16 62 20 74 234 78 l105 2 3 42 c3 34 9 46 38 68 27 21 34 33 32 53 -3 25
-7 28 -68 35 -36 4 -146 7 -245 7 -144 -1 -188 2 -218 15 -26 11 -52 14 -85
10 -62 -8 -87 9 -87 62 -2 146 -3 153 -35 171 -24 13 -29 22 -25 40 4 14 -2
34 -15 52 -26 36 -26 95 0 138 25 41 25 63 1 93 -17 21 -28 24 -106 26 -49 1
-92 7 -101 14 -20 16 -18 56 4 67 9 5 85 12 168 15 150 6 152 6 158 -16 10
-39 7 -64 -13 -89 -15 -18 -21 -48 -27 -121 -9 -122 -5 -127 87 -127 84 0 82
-4 82 185 0 175 -3 185 -51 185 -60 0 -63 7 -61 104 1 64 -2 90 -11 96 -24 15
-190 22 -370 16 -237 -7 -269 -7 -465 1 -93 5 -505 6 -915 3 -467 -3 -777 -1
-830 5 l-85 10 -3 40 c-4 52 -16 65 -59 63 -28 -1 -39 -7 -52 -30 -19 -35 -54
-35 -59 0 -3 17 3 25 25 32 16 6 33 20 38 33 6 13 21 23 37 25 14 2 32 10 39
18 10 12 8 19 -11 39 -27 29 -46 31 -86 10 -16 -8 -40 -15 -54 -15 -17 0 -41
-15 -69 -44 -43 -44 -43 -45 -37 -98 6 -47 4 -57 -13 -72 -19 -18 -22 -18 -46
-2 -22 14 -25 24 -25 72 0 30 6 70 14 89 18 42 101 125 125 125 9 0 32 11 51
25 28 21 45 25 102 25 81 0 94 14 83 89 -4 25 -9 141 -11 258 -4 147 -9 214
-17 221 -7 6 -66 7 -151 2 -109 -6 -144 -5 -165 6 -25 14 -93 19 -103 9z m-63
-234 c-4 -17 -11 -31 -16 -31 -15 0 -22 49 -9 66 19 22 33 2 25 -35z m235
-249 c0 -38 -61 -60 -74 -26 -7 18 8 50 26 57 20 7 48 -12 48 -31z m185 14
c40 -29 -14 -61 -69 -40 -23 9 -20 33 7 44 31 12 41 12 62 -4z m-845 -26 c0
-24 -26 -38 -42 -22 -16 16 -2 42 22 42 13 0 20 -7 20 -20z m-710 0 c0 -5 -4
-10 -10 -10 -5 0 -10 5 -10 10 0 6 5 10 10 10 6 0 10 -4 10 -10z m414 -42 c3
-7 7 -26 11 -41 4 -20 16 -33 41 -43 29 -12 33 -17 25 -33 -8 -14 -27 -19 -92
-25 -50 -4 -86 -3 -92 3 -14 14 10 67 39 86 13 8 24 24 24 34 0 10 3 21 7 24
11 11 33 8 37 -5z m-724 -8 c23 -14 -3 -34 -34 -26 -39 10 -33 25 14 35 3 0
12 -4 20 -9z m245 -10 c0 -19 -38 -25 -67 -9 -22 12 -22 12 -3 20 31 12 70 6
70 -11z m130 0 c0 -8 -8 -16 -17 -18 -13 -2 -18 3 -18 18 0 15 5 20 18 18 9
-2 17 -10 17 -18z m235 0 c0 -13 -7 -20 -20 -20 -13 0 -20 7 -20 20 0 13 7 20
20 20 13 0 20 -7 20 -20z m290 0 c0 -13 -7 -20 -20 -20 -13 0 -20 7 -20 20 0
13 7 20 20 20 13 0 20 -7 20 -20z m-1075 -114 c28 -21 12 -46 -30 -46 -39 0
-39 -1 -25 34 11 29 27 33 55 12z m545 -31 c0 -15 -18 -40 -55 -73 -30 -28
-55 -58 -55 -67 0 -9 12 -36 26 -61 31 -52 15 -60 -33 -15 -22 20 -30 35 -26
49 5 20 -14 45 -50 67 -9 6 -19 29 -23 52 -6 37 -4 43 20 58 24 16 28 16 60 1
44 -21 69 -20 97 3 28 23 39 19 39 -14z m676 10 c7 -16 -25 -72 -68 -123 -16
-19 -28 -44 -28 -60 0 -15 -9 -35 -20 -45 -14 -11 -20 -29 -20 -55 0 -26 -7
-45 -20 -57 -26 -23 -31 -17 -37 42 -3 26 -13 57 -23 68 -10 11 -20 38 -23 60
-3 22 -8 50 -12 63 -11 32 27 30 59 -5 l25 -27 31 29 c16 16 30 34 30 42 0 17
67 83 86 83 8 0 17 -7 20 -15z m-1226 -150 c-13 -16 -40 -20 -40 -7 0 14 12
22 33 22 16 0 17 -3 7 -15z m1655 4 c4 -6 -3 -21 -15 -34 -22 -23 -22 -26 -6
-49 22 -35 21 -42 -16 -86 -30 -36 -38 -40 -80 -40 -44 0 -48 -2 -48 -24 0
-26 -19 -39 -39 -26 -20 12 -8 45 17 48 17 3 22 10 22 32 0 31 64 116 104 137
14 7 27 22 31 33 7 22 20 26 30 9z m-1395 -21 c0 -12 -17 -37 -40 -58 -22 -20
-40 -39 -40 -42 0 -4 16 -15 35 -26 19 -12 37 -32 41 -46 3 -14 17 -32 30 -41
29 -19 32 -60 5 -75 -27 -14 -29 -13 -55 15 -12 13 -40 30 -62 37 -31 11 -39
19 -45 46 -4 18 -16 43 -28 56 -27 29 -27 44 2 55 35 14 118 72 124 87 8 22
33 16 33 -8z m-350 -43 c0 -8 -4 -15 -9 -15 -13 0 -22 16 -14 24 11 11 23 6
23 -9z m2085 -40 c17 -4 42 -21 57 -38 26 -29 30 -30 61 -19 43 15 130 15 145
0 19 -19 14 -44 -13 -76 l-25 -29 -110 1 -110 2 -37 34 c-69 65 -86 98 -62
126 13 15 17 15 94 -1z m1820 -80 c0 -22 -31 -33 -48 -16 -7 7 -6 15 3 26 17
21 45 15 45 -10z m-4470 -38 c14 -11 16 -21 11 -49 -4 -20 -12 -40 -19 -45 -6
-6 -56 -10 -110 -11 -78 -1 -99 2 -104 13 -12 32 18 48 78 41 56 -5 57 -5 84
29 29 39 33 41 60 22z m2321 -16 c7 -13 22 -28 35 -35 31 -15 32 -50 2 -54
-15 -2 -23 4 -28 20 -14 44 -51 51 -65 12 -6 -14 -19 -28 -31 -31 -11 -3 -26
-18 -35 -34 -10 -20 -22 -29 -38 -29 -37 0 -56 10 -56 30 0 21 19 30 65 30 27
0 34 5 39 25 4 15 17 30 31 35 15 6 25 17 25 29 0 36 38 38 56 2z m2604 10
c25 -47 -2 -107 -38 -84 -21 13 -26 41 -13 76 12 32 36 35 51 8z m-3230 1 c0
-20 -27 -43 -43 -36 -17 6 -23 25 -10 37 9 10 53 9 53 -1z m276 -17 c3 -14 12
-25 19 -25 8 0 21 -7 30 -16 15 -16 15 -18 0 -33 -15 -15 -17 -14 -31 3 -8 11
-14 25 -14 32 0 7 -10 14 -22 16 -31 4 -39 48 -9 48 14 0 23 -9 27 -25z m1210
-12 l21 -27 99 13 c98 13 98 13 117 -10 16 -20 18 -34 12 -109 -8 -95 -15
-113 -50 -136 -22 -15 -27 -14 -68 10 -30 18 -58 26 -90 26 -43 0 -50 4 -106
59 -34 33 -61 66 -61 74 0 8 11 40 25 71 21 48 29 56 52 56 18 0 35 -10 49
-27z m1539 3 c16 -12 17 -16 6 -30 -26 -31 -62 -9 -47 29 7 19 17 19 41 1z
m-651 -33 c8 -28 5 -124 -5 -151 -6 -15 -5 -31 2 -45 16 -30 29 -37 60 -30 22
4 31 -1 50 -26 17 -24 30 -31 56 -31 24 0 40 -8 60 -31 24 -26 33 -30 61 -25
26 4 39 -1 66 -25 19 -16 41 -29 49 -29 9 0 21 -9 27 -20 16 -30 68 -54 86
-39 8 6 14 17 14 23 0 19 21 35 37 29 10 -4 12 -16 8 -47 -8 -50 7 -67 62 -72
38 -3 45 -9 75 -63 12 -22 29 -34 68 -45 28 -8 62 -24 77 -36 14 -11 31 -20
38 -20 7 0 19 -7 26 -16 12 -15 11 -18 -5 -28 -10 -6 -31 -21 -46 -33 -15 -13
-42 -23 -58 -23 -18 0 -43 -10 -61 -25 -29 -25 -36 -26 -172 -28 -152 -2 -168
4 -130 42 26 26 26 34 4 53 -49 43 -132 34 -189 -20 -22 -20 -44 -46 -49 -57
-8 -20 -9 -20 -12 1 -2 12 -15 26 -28 32 -13 6 -31 25 -40 42 -14 27 -14 33 0
52 37 54 0 138 -62 138 -15 0 -48 14 -73 30 -25 16 -52 30 -60 30 -9 0 -27 14
-42 30 -14 17 -31 30 -37 30 -5 0 -23 -14 -39 -31 -48 -52 -65 -16 -37 78 5
16 0 29 -21 48 -16 15 -43 40 -60 56 -34 33 -44 34 -126 17 -52 -11 -60 -10
-75 5 -15 14 -15 22 -5 50 15 41 15 72 1 98 -5 11 -7 29 -4 39 6 18 16 20 125
20 l119 0 27 -35 c14 -19 34 -35 44 -35 9 0 29 -9 44 -21 15 -12 37 -19 53
-17 27 3 28 4 31 78 2 41 8 80 14 87 15 19 46 16 52 -4z m-2924 -63 c0 -18
-26 -40 -47 -40 -5 0 -18 6 -28 14 -16 12 -17 16 -6 30 8 9 28 16 47 16 27 0
34 -4 34 -20z m1588 -10 c13 -16 29 -30 36 -30 8 0 19 14 25 30 11 33 31 39
51 15 15 -18 -2 -45 -29 -45 -9 0 -24 -14 -33 -31 -16 -27 -22 -30 -60 -27
-40 3 -43 1 -46 -25 -3 -24 1 -28 28 -34 36 -7 48 -26 30 -48 -22 -27 -48 -18
-60 21 -8 25 -16 34 -27 30 -8 -3 -43 -6 -78 -6 -59 0 -63 -2 -69 -25 -5 -18
-13 -25 -31 -25 -36 0 -36 47 0 56 14 3 31 18 38 33 10 21 19 26 52 27 68 1
94 12 101 42 7 32 31 72 42 72 5 0 18 -13 30 -30z m-2160 2 c2 -7 -3 -12 -12
-12 -9 0 -16 7 -16 16 0 17 22 14 28 -4z m1752 -62 c12 -16 30 -30 41 -30 11
0 22 -7 26 -15 6 -16 -22 -55 -40 -55 -15 0 -86 83 -87 101 -1 39 32 38 60 -1z
m-2742 3 c-2 -10 -10 -18 -18 -18 -8 0 -16 8 -18 18 -2 12 3 17 18 17 15 0 20
-5 18 -17z m175 11 c9 -10 -4 -34 -18 -34 -17 0 -28 17 -20 30 7 11 28 13 38
4z m581 -3 c9 -14 -4 -41 -19 -41 -15 0 -28 27 -19 41 3 5 11 9 19 9 8 0 16
-4 19 -9z m290 3 c21 -8 21 -48 0 -69 -23 -22 -46 -2 -38 34 11 43 13 45 38
35z m3791 -59 c27 -16 49 -60 42 -79 -5 -11 -19 -16 -49 -16 -34 0 -48 6 -75
32 -33 32 -43 72 -20 81 18 8 79 -3 102 -18z m-4314 -7 c7 -13 9 -41 5 -74
l-6 -53 60 -59 c75 -75 77 -95 14 -147 -43 -36 -50 -38 -116 -39 -63 0 -73 2
-90 24 -16 20 -19 35 -15 74 4 47 2 51 -34 87 -22 21 -39 45 -39 53 0 8 35 46
78 85 84 77 121 90 143 49z m346 6 c8 -21 -13 -42 -28 -27 -13 13 -5 43 11 43
6 0 13 -7 17 -16z m762 7 c17 -11 7 -41 -13 -41 -19 0 -29 17 -22 35 6 17 15
18 35 6z m443 -31 c62 -45 179 -50 217 -9 29 32 73 22 83 -17 4 -17 15 -37 24
-45 22 -18 92 -14 115 7 18 16 22 16 68 -11 19 -10 46 -12 108 -8 81 6 83 5
104 -21 18 -23 27 -26 81 -26 56 0 63 -2 92 -35 31 -33 34 -34 83 -29 47 6 52
4 90 -30 30 -27 48 -35 74 -34 19 0 55 -11 83 -26 27 -14 61 -26 76 -26 15 0
48 -11 75 -24 26 -14 71 -30 99 -36 117 -27 238 -71 341 -124 60 -31 123 -56
139 -56 16 0 44 -11 62 -25 24 -19 45 -25 80 -25 44 0 51 -4 110 -60 63 -60
77 -66 149 -61 12 1 33 -11 48 -29 22 -24 35 -30 66 -30 61 0 89 -15 106 -57
19 -44 77 -108 120 -130 17 -9 50 -33 75 -53 25 -20 63 -43 85 -50 22 -7 50
-21 63 -31 13 -10 40 -23 60 -30 20 -6 56 -29 79 -50 24 -22 49 -39 56 -39 8
0 22 -18 32 -40 10 -22 21 -40 25 -40 4 0 31 -18 59 -41 47 -38 51 -44 45 -73
-10 -57 11 -107 60 -146 25 -19 45 -41 46 -49 0 -8 -27 -40 -59 -70 -41 -39
-60 -65 -63 -85 -2 -22 -13 -35 -43 -52 -37 -20 -40 -25 -40 -65 0 -32 4 -45
16 -47 20 -4 88 38 89 55 1 35 71 58 98 31 15 -15 16 -112 1 -139 -5 -11 -35
-36 -65 -55 -30 -19 -54 -39 -54 -44 0 -5 12 -15 28 -22 37 -18 35 -42 -4 -46
-19 -2 -43 -15 -60 -33 -18 -18 -38 -29 -56 -29 -38 0 -68 -32 -68 -72 0 -47
-11 -58 -54 -56 -41 1 -66 -19 -66 -54 0 -10 -20 -32 -45 -50 -37 -26 -45 -38
-43 -58 2 -20 9 -26 33 -28 17 -2 42 -15 58 -30 25 -24 31 -25 67 -15 45 11
50 9 50 -23 0 -15 -10 -29 -27 -38 -47 -24 -229 -204 -218 -215 38 -37 111 -8
145 59 11 22 26 40 33 40 7 0 40 18 73 40 32 22 73 49 90 60 17 11 36 31 42
45 6 14 15 25 20 25 5 0 43 34 86 75 69 67 77 78 71 103 -5 23 0 33 24 54 20
18 31 40 36 70 4 24 11 48 17 55 13 16 93 14 126 -3 15 -8 43 -14 62 -14 29 0
47 -12 108 -66 91 -83 105 -108 87 -151 -8 -18 -32 -43 -54 -58 -46 -28 -45
-25 -29 -94 11 -49 11 -51 -20 -86 -18 -20 -32 -40 -32 -46 0 -6 -21 -32 -46
-58 -25 -25 -52 -57 -59 -71 -8 -14 -27 -38 -44 -53 -16 -15 -33 -36 -36 -47
-3 -10 -25 -30 -48 -43 -23 -14 -53 -37 -66 -51 -14 -14 -29 -26 -35 -26 -28
-1 -186 -128 -186 -149 0 -7 16 -27 35 -45 38 -36 45 -69 18 -84 -9 -6 -60 -8
-113 -5 -82 5 -98 3 -113 -11 -25 -25 -21 -43 13 -61 37 -19 100 -86 93 -98
-3 -5 -76 -8 -162 -7 -86 2 -161 2 -167 1 -18 -2 -47 -81 -45 -123 1 -41 -17
-58 -63 -58 -37 0 -56 24 -49 65 10 64 -46 90 -86 39 -11 -14 -39 -40 -63 -57
-41 -30 -48 -32 -129 -31 l-87 1 -16 -34 c-13 -26 -22 -33 -45 -33 -19 0 -43
-11 -65 -30 -32 -28 -38 -30 -88 -24 -64 7 -134 -9 -148 -36 -9 -16 -22 -20
-68 -21 -100 -1 -144 -12 -179 -47 -35 -35 -59 -40 -89 -17 -10 8 -29 15 -41
15 -17 0 -23 -7 -29 -35 -9 -49 -26 -60 -63 -41 -16 9 -37 16 -46 16 -8 0 -20
11 -25 25 -6 16 -17 25 -32 25 -12 0 -31 9 -43 19 -39 38 -70 69 -83 85 -14
18 -49 21 -86 6 -19 -7 -28 -21 -37 -54 -10 -39 -16 -46 -54 -60 -24 -10 -46
-24 -49 -31 -3 -8 -12 -15 -20 -15 -18 0 -136 118 -136 136 0 20 -113 74 -153
74 -19 0 -54 -7 -77 -15 -25 -9 -57 -13 -75 -9 -50 9 -110 -26 -126 -73 -7
-21 -21 -50 -32 -65 -13 -17 -25 -59 -33 -112 -7 -47 -24 -121 -38 -165 -14
-44 -26 -87 -26 -96 0 -8 -6 -15 -14 -15 -8 0 -16 17 -20 46 -10 78 -7 106 24
229 34 136 36 148 15 169 -12 12 -22 13 -41 6 -14 -6 -43 -10 -64 -10 -34 0
-44 -6 -79 -48 -26 -29 -41 -57 -41 -74 0 -16 -9 -34 -24 -45 -13 -10 -27 -29
-31 -41 -11 -37 -38 -23 -48 26 -7 35 -4 51 13 88 12 25 37 55 55 67 17 12 65
53 106 91 69 64 74 70 73 109 -1 38 -21 67 -46 67 -5 0 -33 -25 -63 -56 -29
-31 -58 -53 -64 -50 -5 4 -7 29 -4 59 7 73 -6 97 -56 97 -58 0 -141 -69 -141
-117 0 -15 -17 -41 -45 -69 -42 -41 -48 -44 -100 -44 -52 0 -55 1 -55 24 0 14
4 27 9 30 4 3 18 32 30 66 12 33 30 64 41 70 10 5 20 22 22 37 2 17 12 32 28
40 49 24 45 93 -5 93 -29 0 -91 -52 -101 -83 -3 -12 -15 -31 -25 -42 -33 -35
-87 -111 -94 -134 -3 -11 -13 -21 -20 -21 -11 0 -15 19 -17 73 -3 66 -5 72
-25 75 -16 2 -42 -15 -92 -62 -73 -68 -105 -81 -116 -45 -13 39 6 69 96 159
50 50 89 96 86 103 -7 23 -54 19 -82 -7 -16 -14 -34 -26 -41 -26 -18 0 -74
-49 -74 -65 0 -7 -27 -46 -60 -85 -33 -39 -60 -78 -60 -85 0 -21 -20 -28 -43
-17 -12 6 -30 13 -39 16 -26 8 -22 35 7 46 31 12 84 70 85 92 0 10 -11 25 -24
33 -30 20 -50 67 -42 98 3 14 37 57 76 98 86 91 89 109 23 143 -22 11 -58 16
-115 16 -46 0 -108 7 -138 16 -96 28 -105 28 -152 0 -25 -14 -51 -26 -58 -26
-8 0 -26 -12 -41 -26 -56 -54 -68 10 -14 73 32 37 35 47 35 101 0 75 -6 92
-35 92 -29 0 -115 -91 -115 -122 0 -13 -18 -42 -40 -65 -35 -38 -44 -43 -85
-43 -49 0 -53 6 -30 50 14 28 14 31 -5 50 -17 17 -28 19 -63 13 -23 -3 -54
-15 -69 -26 -29 -22 -45 -17 -58 19 -9 22 -15 24 -70 24 -55 0 -61 2 -72 26
-11 22 -10 28 7 40 10 8 28 14 40 14 11 0 31 7 43 16 20 14 23 23 20 67 -3 47
-6 52 -27 55 -18 3 -32 -5 -50 -27 -32 -37 -69 -47 -96 -27 -19 14 -18 16 33
63 28 27 52 54 52 61 0 13 -39 42 -58 42 -8 0 -30 -14 -49 -30 -36 -32 -64
-38 -82 -17 -8 11 -5 19 14 37 51 48 41 114 -20 126 -25 4 -40 15 -50 35 -14
26 -62 49 -102 49 -7 0 -36 22 -64 50 -43 43 -57 50 -90 50 -30 0 -42 -5 -55
-25 -35 -54 -63 -21 -44 53 11 44 10 48 -11 65 -13 10 -36 17 -53 17 -62 -4
-75 1 -138 53 -58 47 -72 54 -143 66 -70 13 -85 13 -141 -2 -77 -21 -90 -21
-98 -1 -4 10 6 26 29 47 30 26 35 37 35 74 0 36 -4 45 -22 52 -13 5 -32 19
-43 31 -11 12 -37 33 -57 46 -21 13 -47 42 -59 65 -19 38 -23 41 -52 34 -91
-19 -117 -4 -117 65 0 37 -6 56 -25 78 -14 17 -25 37 -25 46 0 22 59 126 71
126 6 0 17 16 25 35 17 40 29 39 37 -4 4 -16 14 -32 24 -35 10 -3 27 -25 38
-48 16 -34 28 -46 59 -56 21 -6 49 -21 63 -32 14 -11 40 -20 58 -20 18 0 39
-7 46 -17 22 -26 74 -43 131 -43 41 0 65 7 103 30 46 27 58 30 142 30 56 0 94
4 99 11 6 11 47 8 91 -6 18 -6 25 -2 34 18 18 40 4 73 -44 102 -24 14 -54 25
-67 25 -13 0 -41 12 -62 26 l-38 27 -133 -8 c-173 -10 -254 -9 -289 6 -33 14
-106 114 -109 150 -4 50 2 69 40 117 37 47 42 49 101 55 37 4 69 3 82 -4 26
-14 95 -2 119 22 10 10 19 28 19 40 0 11 14 40 30 65 27 38 36 44 65 44 37 0
39 -3 36 -61 -3 -42 19 -67 49 -53 10 5 34 32 52 59 25 38 39 50 58 50 20 0
26 -6 30 -30 6 -36 47 -98 113 -170 29 -32 47 -61 45 -72 -2 -10 2 -17 10 -15
26 5 52 -18 52 -46 0 -16 13 -49 30 -75 24 -38 35 -47 59 -47 48 0 55 19 54
143 -1 62 -2 120 -2 129 -1 9 -12 30 -26 46 -14 17 -25 39 -25 50 0 11 -18 37
-40 58 -31 29 -40 46 -40 70 0 45 -16 51 -50 19 -35 -33 -55 -28 -64 16 -7 37
1 45 52 55 24 5 38 2 52 -11 18 -16 22 -16 52 -2 38 18 47 14 108 -47 25 -25
51 -46 58 -46 7 0 40 23 73 50 56 47 64 50 115 50 42 0 54 3 54 15 0 9 20 24
45 35 25 11 45 23 45 27 0 5 26 37 58 71 31 34 63 69 70 77 9 11 33 15 86 15
55 0 75 4 79 15 4 8 23 23 44 35 53 29 104 65 133 95 15 15 37 25 53 25 19 0
31 7 38 23 12 26 103 72 125 63 8 -3 31 1 52 8 20 8 53 17 73 20 21 4 48 15
62 26 13 11 44 24 68 29 38 9 69 32 69 52 0 17 -35 32 -73 32 -35 -1 -50 6
-86 37 -25 21 -41 43 -37 49 5 7 51 10 143 9 l136 -3 25 -32 c21 -29 30 -33
69 -33 37 0 49 6 79 35 25 26 43 35 67 35 18 0 38 5 45 12 18 18 14 54 -8 69
-20 14 -20 14 6 53 l27 39 136 -7 c114 -5 140 -9 163 -26z m-1322 -25 c13 -16
6 -35 -15 -35 -18 0 -26 15 -19 34 8 20 18 20 34 1z m2685 -15 c0 -18 -6 -26
-23 -28 -24 -4 -38 18 -28 44 3 9 15 14 28 12 17 -2 23 -10 23 -28z m-3371 -6
c15 -39 5 -62 -40 -97 -26 -20 -51 -34 -55 -31 -18 11 -8 63 18 96 44 52 66
62 77 32z m5317 -34 c26 -15 24 -38 -5 -46 -52 -13 -89 22 -48 45 22 13 29 13
53 1z m-5503 -23 c2 -12 -3 -17 -17 -17 -12 0 -21 6 -21 13 0 31 32 34 38 4z
m3787 -57 c0 -18 -6 -26 -23 -28 -24 -4 -38 18 -28 44 3 9 15 14 28 12 17 -2
23 -10 23 -28z m1265 -4 c0 -3 -4 -8 -10 -11 -5 -3 -10 -1 -10 4 0 6 5 11 10
11 6 0 10 -2 10 -4z m-5159 -22 c18 -22 14 -81 -7 -105 -11 -12 -30 -19 -54
-19 -24 0 -43 -7 -55 -20 -28 -31 -47 -26 -45 13 3 50 2 53 -26 65 -18 9 -24
19 -22 35 2 17 10 23 40 25 30 3 40 -1 54 -22 23 -36 47 -33 67 9 18 39 28 43
48 19z m399 -29 c16 -19 6 -56 -25 -93 -31 -36 -31 -39 -2 -62 29 -24 16 -36
-23 -20 -26 11 -35 9 -81 -15 -40 -20 -60 -25 -86 -20 -27 5 -40 1 -64 -19
-53 -45 -117 -28 -89 23 12 23 69 51 104 51 12 0 45 25 81 60 42 43 67 60 85
60 15 0 37 11 50 25 27 29 33 30 50 10z m5230 -5 c0 -11 -6 -20 -14 -20 -18 0
-29 16 -21 30 11 18 35 11 35 -10z m120 6 c0 -20 -19 -31 -32 -18 -6 6 -7 15
-4 21 10 16 36 13 36 -3z m-5643 -70 c-4 -9 -11 -16 -17 -16 -17 0 -24 31 -9
41 18 11 34 -5 26 -25z m5590 -51 c-6 -17 -37 -18 -43 -1 -3 9 0 23 7 32 12
14 14 14 26 -2 7 -10 12 -23 10 -29z m-4540 -60 c3 -9 3 -19 -1 -22 -8 -9 -37
18 -30 28 8 14 24 11 31 -6z m-1271 -69 c7 -28 -12 -69 -29 -63 -16 5 -31 51
-24 71 10 25 46 20 53 -8z m988 -33 c4 -9 0 -23 -9 -32 -13 -14 -17 -14 -31 1
-9 9 -14 24 -11 32 8 21 43 20 51 -1z m-239 -13 c0 -8 -10 -16 -22 -18 -22 -3
-32 16 -16 32 12 11 38 2 38 -14z m4063 3 c-5 -25 -28 -28 -28 -4 0 12 6 21
16 21 9 0 14 -7 12 -17z m-4533 -59 c0 -10 -8 -20 -17 -22 -18 -3 -26 27 -11
42 12 11 28 0 28 -20z m415 6 c0 -11 -29 -40 -40 -40 -5 0 -12 -9 -15 -20 -8
-26 -45 -27 -45 -1 0 25 65 82 85 75 8 -4 15 -10 15 -14z m-642 -23 c4 -37
-10 -53 -56 -61 -20 -3 -64 -20 -97 -36 -33 -17 -69 -30 -81 -30 -13 0 -37
-12 -55 -27 -32 -27 -74 -35 -113 -20 -15 6 -16 10 -6 22 7 8 18 15 26 15 7 0
29 14 47 30 20 17 46 30 60 30 15 0 41 13 59 29 24 20 48 30 87 34 36 4 62 14
75 27 28 27 50 22 54 -13z m181 -47 c6 -19 17 -30 29 -30 10 0 24 -11 30 -25
9 -19 19 -25 45 -25 58 0 77 -39 28 -60 -33 -13 -71 0 -71 25 0 7 -13 23 -30
35 -16 12 -30 30 -30 41 0 12 -7 19 -19 19 -23 0 -35 15 -27 35 9 25 33 17 45
-15z m5698 -53 c15 -19 54 -47 86 -63 53 -26 127 -97 127 -121 0 -5 -12 -21
-27 -35 -22 -20 -42 -27 -97 -32 -56 -4 -75 -11 -96 -31 -24 -23 -34 -26 -86
-23 l-59 3 -1 50 c-1 32 -7 51 -15 54 -8 2 -28 19 -45 38 -27 29 -37 34 -70
31 -36 -3 -39 -1 -39 22 0 19 14 34 65 68 36 23 74 44 85 46 56 11 121 23 132
25 6 0 24 -14 40 -32z m-6457 2 c0 -13 -8 -23 -20 -26 -12 -3 -28 -19 -36 -35
-19 -36 -57 -36 -62 0 -3 18 2 23 28 29 21 4 35 14 41 29 11 31 49 33 49 3z
m5520 -4 c0 -18 -5 -25 -19 -25 -11 0 -23 5 -26 10 -11 18 3 40 25 40 15 0 20
-7 20 -25z m-4826 -51 c3 -9 4 -19 1 -24 -7 -12 -45 0 -45 14 0 28 34 36 44
10z m-100 -54 c4 -5 -9 -19 -30 -33 -22 -13 -45 -32 -53 -41 -10 -12 -31 -16
-85 -16 -72 0 -104 10 -92 28 3 5 28 12 55 14 38 4 59 13 87 37 32 28 41 32
73 26 20 -4 40 -10 45 -15z m156 -11 c0 -25 -33 -22 -38 4 -2 12 3 17 17 17
15 0 21 -6 21 -21z m-630 -44 c15 -18 7 -109 -11 -132 -7 -8 -24 -13 -38 -11
-20 2 -25 8 -23 23 2 11 6 36 8 55 9 68 14 80 33 80 10 0 24 -7 31 -15z m5780
-20 c0 -8 -4 -15 -9 -15 -13 0 -22 16 -14 24 11 11 23 6 23 -9z m-151 -39 c9
-10 8 -16 -4 -26 -19 -16 -41 1 -32 24 8 20 21 20 36 2z m987 -46 c15 -6 49
-32 75 -58 62 -60 65 -90 12 -124 -91 -58 -110 -68 -135 -68 -15 0 -39 -5 -53
-12 -29 -13 -47 -1 -60 40 -5 19 1 31 34 61 39 36 41 41 41 94 0 72 23 90 86
67z m-6731 -75 c0 -25 -4 -31 -27 -33 -25 -3 -28 0 -28 27 0 30 12 41 40 38
10 -2 15 -13 15 -32z m-277 -13 c-2 -11 -15 -18 -36 -20 -26 -3 -32 0 -32 17
0 11 8 24 17 30 23 12 55 -5 51 -27z m852 8 c0 -13 -7 -20 -20 -20 -19 0 -27
20 -13 33 13 14 33 6 33 -13z m-930 -50 c0 -47 -92 -67 -98 -21 -5 29 12 41
61 41 30 0 37 -4 37 -20z m7615 0 c10 -17 -5 -70 -20 -70 -20 0 -37 37 -30 60
7 21 39 27 50 10z m-326 -127 c17 -25 31 -51 31 -57 0 -6 9 -28 20 -48 11 -21
23 -55 26 -78 6 -34 2 -46 -22 -81 -16 -23 -41 -46 -55 -51 -37 -13 -43 -35
-15 -53 18 -12 29 -13 55 -4 28 10 37 9 59 -8 36 -27 38 -45 7 -82 -39 -46
-75 -42 -125 12 -22 23 -40 50 -40 59 0 31 -46 73 -94 86 -36 9 -51 20 -64 44
-9 18 -29 43 -44 57 -16 14 -28 34 -28 43 0 24 57 58 96 58 25 0 43 11 83 52
28 28 51 59 51 68 0 18 9 30 21 30 4 0 21 -21 38 -47z m-7384 17 c10 -17 -16
-41 -39 -38 -13 2 -22 12 -24 26 -3 19 1 22 27 22 16 0 33 -5 36 -10z m7795
-35 c9 -11 28 -13 91 -8 56 4 83 2 94 -7 17 -14 21 -95 5 -105 -6 -4 -49 -8
-96 -9 -85 -2 -85 -2 -100 26 -8 16 -26 33 -39 38 -19 7 -25 17 -25 38 0 16 3
32 7 35 12 12 50 7 63 -8z m-100 -95 c0 -5 -4 -10 -10 -10 -5 0 -10 5 -10 10
0 6 5 10 10 10 6 0 10 -4 10 -10z m79 -126 c-14 -17 -35 -18 -45 -2 -11 17 26
40 43 27 10 -9 10 -15 2 -25z m359 -145 c4 -44 -27 -79 -48 -54 -27 32 -6 100
29 93 10 -2 17 -16 19 -39z m-1240 2 c21 -13 10 -46 -16 -49 -24 -4 -38 18
-28 43 6 17 24 19 44 6z m274 -66 c43 -43 72 -65 87 -65 15 0 37 -16 63 -45
56 -63 62 -65 164 -55 99 11 114 4 114 -51 0 -41 -24 -56 -63 -40 -54 22 -83
24 -110 6 -24 -15 -26 -15 -52 10 -16 14 -40 25 -54 25 -20 0 -53 26 -133 103
-101 96 -130 139 -113 166 13 22 36 9 97 -54z m707 -71 c16 -58 -4 -88 -51
-78 -22 4 -29 0 -44 -25 -26 -43 -54 -41 -54 3 0 28 9 43 46 78 41 39 66 55
86 57 4 1 12 -15 17 -35z m-751 -93 c8 -4 12 -19 10 -32 -2 -18 -9 -24 -28
-24 -19 0 -26 6 -28 24 -3 20 11 41 28 41 3 0 11 -4 18 -9z m917 -41 c19 -19
35 -37 35 -42 0 -13 -109 -60 -131 -56 -34 5 -68 130 -37 140 33 11 101 -11
133 -42z m-325 -34 c0 -20 -24 -36 -39 -26 -8 4 -11 15 -8 24 8 20 47 21 47 2z
m168 -123 c4 -28 -34 -42 -56 -20 -13 13 -13 19 -2 32 18 22 54 15 58 -12z
m223 11 c11 -14 10 -18 -6 -30 -24 -18 -46 -18 -71 1 -19 15 -19 15 0 30 26
20 60 19 77 -1z m-931 -104 c0 -11 -4 -20 -10 -20 -5 0 -10 9 -10 20 0 11 5
20 10 20 6 0 10 -9 10 -20z m929 -9 c21 -14 5 -41 -24 -41 -29 0 -45 27 -24
41 8 5 19 9 24 9 6 0 16 -4 24 -9z m-265 -57 c25 -10 19 -30 -13 -44 -30 -12
-63 -9 -131 12 l-35 11 30 13 c31 14 122 18 149 8z m274 -80 c4 -26 -22 -38
-49 -24 -36 20 -21 53 21 48 17 -2 26 -10 28 -24z m-8078 -48 c0 -8 -5 -18
-11 -22 -14 -8 -33 11 -25 25 10 16 36 13 36 -3z m8085 -117 c23 -23 -62 -40
-95 -19 -13 9 -12 12 5 26 21 16 71 12 90 -7z m-587 -38 c18 -11 12 -41 -11
-55 -25 -15 -51 18 -36 45 10 20 26 24 47 10z m246 -68 c8 -20 -1 -33 -25 -33
-24 0 -35 25 -19 45 13 16 36 10 44 -12z m334 -17 c6 -29 -15 -43 -35 -24 -14
14 -14 20 -3 33 16 19 34 15 38 -9z m35 -93 c34 -31 12 -53 -54 -53 -33 0 -89
19 -89 31 0 5 17 18 38 29 40 21 75 19 105 -7z m-308 -33 c0 -30 -35 -40 -54
-16 -20 24 -6 48 26 44 22 -2 28 -8 28 -28z m99 24 c38 -15 7 -88 -35 -82 -30
4 -38 42 -13 69 19 21 24 22 48 13z m175 -115 c42 -15 39 -36 -6 -42 -21 -3
-48 -8 -60 -12 -30 -10 -44 32 -17 52 22 16 41 16 83 2z m-229 -48 c36 -5 45
-10 45 -26 0 -16 -8 -21 -40 -23 -52 -4 -78 -27 -70 -63 5 -23 0 -31 -36 -58
-56 -41 -65 -40 -61 8 2 21 -1 48 -7 60 -10 19 -9 22 14 31 15 6 32 24 40 42
18 44 26 50 50 43 11 -4 40 -10 65 -14z m-387 -20 c16 -16 3 -22 -60 -30 -42
-5 -70 -15 -96 -35 -32 -25 -37 -34 -37 -69 0 -28 7 -48 22 -64 16 -17 22 -36
22 -62 -1 -34 2 -39 30 -47 43 -13 57 -46 45 -106 -17 -79 -58 -58 -84 42 -11
45 -11 45 -60 48 -37 2 -57 10 -82 33 -19 16 -38 29 -43 29 -6 0 -10 9 -10 20
0 15 14 27 53 44 49 21 55 27 60 61 3 21 19 56 34 79 53 81 51 79 127 73 38
-4 74 -11 79 -16z m162 -1 c3 -5 -3 -10 -15 -10 -12 0 -18 5 -15 10 3 6 10 10
15 10 5 0 12 -4 15 -10z m-6560 -300 c-3 -5 -10 -10 -16 -10 -5 0 -9 5 -9 10
0 6 7 10 16 10 8 0 12 -4 9 -10z m6998 -20 c5 -20 -15 -45 -26 -33 -4 3 -7 17
-7 30 0 28 26 31 33 3z m-6668 -20 c8 -13 -12 -40 -29 -40 -22 0 -39 18 -33
34 7 18 52 22 62 6z m6273 -109 c-5 -45 -40 -39 -64 11 -11 24 -18 51 -16 61
3 15 9 13 43 -14 31 -25 39 -37 37 -58z m-6624 52 c5 -11 -2 -24 -21 -40 -53
-44 -57 -45 -93 -8 -38 39 -34 51 20 58 74 8 88 7 94 -10z m6085 -6 c13 -16 5
-27 -19 -27 -20 0 -43 24 -33 33 11 12 40 8 52 -6z m-5336 -55 c15 -4 28 -11
27 -17 -2 -31 -24 -96 -45 -136 -14 -26 -25 -60 -25 -76 0 -17 -13 -54 -29
-84 -22 -42 -34 -54 -52 -54 -21 0 -25 6 -31 54 -3 29 -11 58 -17 64 -16 16
-14 80 4 113 8 16 15 38 15 48 0 30 81 106 105 100 11 -3 33 -9 48 -12z m125
-10 c3 -18 -1 -22 -21 -22 -28 0 -41 22 -24 39 17 17 42 9 45 -17z m4822 13
c15 -18 5 -35 -21 -35 -12 0 -19 7 -19 18 0 33 20 42 40 17z m463 -39 c3 -7
23 -18 44 -23 45 -10 67 -47 77 -134 l7 -56 -40 -26 c-22 -15 -45 -27 -51 -27
-14 0 -13 94 2 142 10 36 9 40 -14 66 -31 33 -52 72 -39 72 5 0 11 -6 14 -14z
m-5174 -15 c17 -11 7 -41 -13 -41 -19 0 -29 17 -22 35 6 17 15 18 35 6z m5822
-42 c19 -27 26 -30 55 -25 26 5 35 2 48 -16 13 -18 26 -23 63 -23 44 0 49 -3
77 -43 37 -52 28 -65 -52 -72 l-57 -5 -5 -45 c-3 -25 -9 -51 -13 -57 -10 -16
-81 -17 -108 -3 -42 23 -11 120 39 120 31 0 55 24 48 48 -5 16 -15 22 -36 22
-20 0 -35 9 -50 30 -23 32 -63 40 -102 19 -29 -16 -68 -3 -68 22 0 46 17 59
80 59 54 0 60 -2 81 -31z m-5873 -92 c4 -20 -25 -34 -40 -19 -15 15 -1 44 19
40 10 -2 19 -11 21 -21z m229 7 c6 -16 -15 -37 -29 -28 -4 3 -8 14 -8 25 0 23
28 26 37 3z m-876 -56 c13 -21 -20 -38 -73 -38 -41 0 -52 -5 -83 -36 -37 -36
-51 -39 -68 -13 -7 11 -4 30 8 61 l17 46 96 -4 c64 -2 98 -7 103 -16z m5719
-14 c44 -40 49 -58 21 -74 -29 -15 -34 -13 -85 28 -61 49 -63 82 -4 82 18 0
42 -13 68 -36z m700 -64 c0 -27 -5 -40 -17 -44 -37 -14 -58 57 -27 89 23 23
44 2 44 -45z m-894 19 c10 -17 -13 -36 -27 -22 -12 12 -4 33 11 33 5 0 12 -5
16 -11z m-621 -74 c0 -23 -43 -34 -55 -14 -14 21 1 40 29 37 18 -2 26 -9 26
-23z m-4889 -60 c29 -72 30 -85 6 -85 -34 0 -54 25 -59 73 -11 95 16 101 53
12z m597 4 c25 -37 35 -69 22 -69 -15 0 -86 84 -81 96 10 25 32 15 59 -27z
m5325 -19 c-15 -23 -28 -26 -28 -7 0 17 10 27 27 27 11 0 11 -4 1 -20z m160
-95 c-4 -25 -45 -32 -73 -12 -17 13 -18 18 -7 41 12 26 12 26 47 9 26 -13 35
-23 33 -38z m149 39 c30 -12 45 -24 49 -41 9 -34 -7 -46 -49 -38 -41 8 -61 28
-71 68 -8 33 7 35 71 11z m-4783 -20 c31 -30 13 -104 -25 -104 -47 0 -45 119
3 120 4 0 14 -7 22 -16z m3251 -14 c3 -11 18 -23 33 -27 49 -12 57 -49 13 -64
-15 -6 -33 -21 -40 -35 -14 -33 -54 -30 -59 4 -3 18 3 25 27 33 25 9 31 17 31
40 0 22 -5 29 -19 29 -22 0 -35 15 -26 30 10 17 33 11 40 -10z m-4179 -104 c3
-13 4 -38 2 -57 -2 -27 -8 -35 -27 -37 -45 -7 -66 51 -35 96 20 29 52 29 60
-2z m4342 -12 c2 -15 -4 -23 -19 -27 -27 -7 -59 8 -59 28 0 32 73 31 78 -1z
m1882 11 c8 -9 10 -32 6 -67 -3 -29 -6 -68 -6 -85 0 -26 -6 -36 -31 -48 -17
-9 -42 -15 -57 -13 l-27 3 -3 99 c-2 64 1 103 9 112 15 19 93 18 109 -1z
m-1755 -15 c0 -8 -8 -16 -17 -18 -13 -2 -18 3 -18 18 0 15 5 20 18 18 9 -2 17
-10 17 -18z m251 9 c8 -13 -15 -30 -36 -26 -8 1 -16 10 -18 20 -3 12 3 17 22
17 14 0 28 -5 32 -11z m149 -65 c0 -13 -8 -20 -27 -22 -32 -4 -39 21 -10 37
23 14 37 8 37 -15z m841 2 c3 -8 -2 -28 -11 -46 -28 -53 -66 -26 -51 36 5 17
13 24 32 24 13 0 27 -6 30 -14z m-1286 -92 c0 -48 -18 -66 -49 -47 -42 26 -12
125 30 102 14 -7 19 -21 19 -55z m290 27 c0 -23 -25 -45 -43 -38 -21 8 -27 45
-10 62 18 19 53 3 53 -24z m-4083 13 c8 -21 -13 -42 -28 -27 -13 13 -5 43 11
43 6 0 13 -7 17 -16z m643 -4 c0 -24 -26 -38 -42 -22 -16 16 -2 42 22 42 13 0
20 -7 20 -20z m989 6 c19 -22 18 -67 -1 -79 -33 -22 -61 29 -42 77 8 20 28 21
43 2z m-1513 -11 c7 -18 -14 -47 -27 -39 -5 3 -9 16 -9 30 0 27 27 34 36 9z
m2434 -45 c0 -16 -4 -30 -10 -30 -5 0 -10 14 -10 30 0 17 5 30 10 30 6 0 10
-13 10 -30z m-1796 1 c9 -14 -4 -41 -19 -41 -18 0 -28 17 -21 35 6 17 32 20
40 6z m2504 -9 c2 -7 -3 -12 -12 -12 -9 0 -16 7 -16 16 0 17 22 14 28 -4z
m-2803 -52 c0 -7 -6 -15 -12 -17 -8 -3 -13 4 -13 17 0 13 5 20 13 18 6 -3 12
-11 12 -18z m513 4 c12 -8 22 -22 22 -31 0 -13 -8 -15 -41 -10 -54 7 -71 23
-45 43 25 18 36 18 64 -2z m-388 -14 c0 -13 -7 -20 -20 -20 -13 0 -20 7 -20
20 0 13 7 20 20 20 13 0 20 -7 20 -20z m924 -383 c10 -7 16 -22 14 -33 -5 -26
-71 -28 -76 -1 -4 20 14 47 32 47 7 0 20 -6 30 -13z"/>
<path d="M3333 5835 c-8 -22 6 -33 17 -15 13 20 12 30 0 30 -6 0 -13 -7 -17
-15z"/>
<path d="M4535 5565 c-38 -13 -109 -28 -157 -34 -62 -7 -96 -17 -117 -32 -16
-12 -50 -24 -75 -26 -35 -4 -52 -13 -71 -34 -16 -20 -33 -29 -54 -29 -17 0
-42 -11 -59 -25 -17 -14 -40 -25 -52 -25 -16 0 -63 -39 -148 -122 -177 -173
-191 -189 -212 -230 -11 -20 -24 -39 -30 -43 -5 -3 -10 -14 -10 -24 0 -10 -14
-38 -30 -63 -17 -25 -34 -67 -39 -92 -5 -27 -19 -59 -34 -74 -40 -43 -64 -102
-75 -184 -5 -43 -20 -99 -33 -124 -19 -41 -23 -67 -26 -196 -3 -127 -1 -163
17 -236 12 -48 32 -108 46 -133 13 -26 24 -55 24 -65 0 -11 11 -37 25 -59 13
-22 25 -48 25 -57 0 -9 24 -42 54 -72 29 -30 59 -70 67 -88 15 -37 28 -50 77
-73 18 -9 64 -47 102 -86 38 -38 81 -74 94 -79 14 -5 36 -27 50 -48 14 -23 37
-44 55 -50 17 -6 31 -16 31 -21 0 -6 16 -17 36 -26 20 -8 49 -26 66 -40 23
-20 41 -25 82 -25 45 0 56 -4 80 -29 23 -24 39 -30 85 -34 66 -6 195 -33 219
-46 9 -5 26 -5 40 0 16 6 32 4 52 -6 35 -18 62 -19 78 -2 9 8 61 14 155 18
122 4 148 8 187 28 26 14 67 25 100 27 116 7 153 16 193 45 22 16 49 29 60 29
11 0 54 30 96 66 99 87 311 310 311 328 0 7 15 36 33 62 18 27 38 60 45 74 35
68 46 87 67 110 15 17 24 43 29 81 3 31 17 81 31 110 13 30 27 81 31 114 4 33
16 77 26 99 16 32 20 65 23 214 4 170 4 177 -17 200 -17 17 -24 41 -29 97 -5
50 -15 87 -32 117 -14 24 -28 60 -32 82 -4 27 -21 54 -56 91 -28 29 -54 68
-59 87 -18 62 -364 398 -411 398 -11 0 -32 12 -46 26 -29 29 -70 44 -122 44
-24 0 -44 8 -63 27 -24 23 -39 27 -116 33 -70 5 -95 11 -117 28 -26 21 -37 22
-214 21 -164 -1 -194 -4 -256 -24z m450 -76 c53 -63 6 -91 -59 -35 -45 39 -44
66 3 66 20 0 37 -9 56 -31z m-464 -258 c27 -22 21 -33 -30 -50 -39 -13 -51 -8
-51 23 0 46 41 60 81 27z m-495 -157 c34 -35 36 -40 32 -86 -4 -33 -13 -57
-29 -74 -21 -23 -24 -36 -25 -112 -1 -48 -5 -99 -9 -113 -6 -23 -2 -28 31 -44
53 -25 85 -12 104 43 15 44 29 52 50 27 20 -23 53 -18 81 14 23 26 30 28 72
24 67 -8 97 14 97 69 0 29 7 49 21 64 12 13 23 34 24 48 5 38 13 46 53 46 43
0 51 5 75 43 16 25 23 27 78 27 64 0 84 -16 60 -49 -47 -65 -51 -76 -45 -118
6 -39 3 -46 -30 -79 -32 -32 -40 -35 -70 -30 -48 9 -65 -1 -87 -51 -24 -56
-24 -69 1 -76 24 -6 27 -35 5 -44 -9 -3 -24 2 -34 11 -10 9 -22 16 -26 16 -19
0 -75 -65 -75 -87 0 -13 -9 -40 -20 -60 -13 -24 -20 -57 -20 -90 0 -40 -5 -58
-25 -81 -30 -36 -30 -37 -5 -69 11 -14 20 -34 20 -45 0 -10 7 -32 15 -48 19
-38 57 -39 134 -6 71 31 86 25 107 -38 9 -28 20 -55 25 -61 5 -5 9 -21 9 -36
0 -29 23 -59 45 -59 7 0 24 -14 38 -31 22 -28 31 -32 91 -36 63 -5 69 -4 95
21 17 17 38 27 52 26 41 -4 47 -1 68 35 11 19 26 35 33 35 14 0 78 60 78 74 0
5 27 37 60 72 46 47 60 69 60 92 0 45 20 55 99 50 54 -3 75 -9 93 -25 13 -12
40 -26 60 -31 21 -6 50 -20 64 -31 28 -22 78 -28 89 -11 5 8 11 7 21 -1 19
-16 18 -23 -11 -57 -15 -19 -25 -42 -25 -62 0 -26 -11 -43 -50 -83 -52 -52
-50 -52 -133 -31 -24 6 -35 1 -68 -32 -41 -40 -89 -116 -89 -140 0 -8 -8 -22
-19 -33 -15 -15 -29 -17 -69 -13 -44 4 -54 1 -76 -21 -28 -28 -32 -56 -15
-106 10 -27 9 -35 -5 -49 -15 -16 -19 -14 -51 21 -22 24 -39 35 -50 31 -16 -7
-55 21 -55 39 0 6 -8 19 -17 29 -9 10 -19 38 -23 61 -5 40 -7 42 -35 39 -51
-5 -60 -23 -61 -121 -1 -49 -4 -93 -8 -100 -14 -23 -69 -12 -103 21 -26 26
-35 29 -47 19 -8 -7 -16 -26 -18 -43 -4 -45 -28 -49 -28 -5 0 53 -27 71 -96
64 -75 -8 -84 -3 -84 47 0 22 -3 65 -6 94 -6 41 -10 52 -25 52 -10 0 -23 -10
-30 -22 -6 -13 -26 -39 -44 -58 -40 -43 -46 -67 -35 -138 13 -75 -2 -99 -67
-106 -27 -4 -66 -11 -88 -17 -123 -32 -156 -31 -178 7 -13 22 -63 16 -95 -11
-39 -33 -57 -32 -96 8 -18 17 -45 40 -59 50 -17 11 -27 27 -27 42 0 56 96 145
158 145 17 0 43 10 59 24 22 18 43 24 95 28 81 5 113 25 145 90 12 26 27 49
32 53 16 9 13 51 -4 65 -21 18 -77 -4 -104 -40 -15 -21 -30 -30 -51 -30 -38 0
-47 17 -21 44 24 25 54 104 47 123 -4 8 -25 13 -60 13 -30 0 -58 5 -61 10 -4
6 6 23 22 39 77 77 87 97 57 122 -13 10 -15 23 -9 59 16 104 15 104 -37 110
-53 7 -63 13 -55 35 4 9 19 15 39 15 44 1 142 60 146 87 5 35 -26 44 -88 26
-49 -14 -56 -14 -89 2 -19 9 -66 20 -103 24 -101 11 -134 49 -83 97 32 30 32
39 -6 66 -17 13 -37 35 -45 50 -22 42 18 120 93 181 108 88 119 95 154 100 72
8 78 7 115 -29z m1523 0 c33 -37 36 -57 9 -62 -18 -4 -88 61 -88 82 0 30 46
18 79 -20z m-473 -88 c11 -8 30 -16 44 -18 17 -2 26 -12 32 -34 4 -17 17 -39
28 -49 27 -25 25 -35 -14 -78 -31 -34 -38 -37 -91 -37 -67 0 -89 10 -110 50
-22 43 -19 67 21 126 36 56 55 64 90 40z m-271 -46 c-5 -8 -11 -8 -17 -2 -6 6
-7 16 -3 22 5 8 11 8 17 2 6 -6 7 -16 3 -22z m815 -30 c0 -5 -4 -10 -10 -10
-5 0 -10 5 -10 10 0 6 5 10 10 10 6 0 10 -4 10 -10z m-222 -493 c5 -23 -15
-47 -39 -47 -27 0 -33 18 -14 46 18 28 48 29 53 1z m582 -182 c26 -31 -18 -71
-47 -43 -12 12 -13 20 -4 37 14 25 34 27 51 6z m-908 -20 c17 -38 0 -79 -35
-83 -37 -5 -57 14 -57 52 0 39 15 56 52 56 21 0 32 -7 40 -25z m145 -691 c8
-20 -8 -36 -26 -25 -15 10 -8 41 9 41 6 0 13 -7 17 -16z m181 -67 c2 -11 -3
-17 -17 -17 -23 0 -35 15 -26 31 10 15 39 6 43 -14z m-69 -225 c12 -23 -4 -52
-29 -52 -26 0 -53 39 -38 57 15 19 56 16 67 -5z"/>
<path d="M1229 4920 c-9 -5 -20 -22 -23 -36 -9 -34 15 -70 59 -91 19 -9 37
-25 41 -35 7 -23 -41 -83 -73 -92 -30 -8 -39 -43 -17 -67 25 -28 52 -24 72 11
9 16 21 30 25 30 5 0 38 30 73 66 80 83 84 109 20 125 -34 8 -47 18 -56 40 -7
15 -17 32 -24 37 -18 15 -80 22 -97 12z"/>
<path d="M1861 4514 c-11 -15 -21 -31 -21 -36 0 -6 -9 -21 -20 -35 -26 -33
-25 -61 1 -89 13 -14 19 -29 15 -40 -5 -14 -14 -15 -59 -9 -56 9 -99 9 -134 0
-20 -5 -23 -12 -23 -54 0 -35 -5 -53 -20 -66 -11 -10 -20 -24 -20 -32 0 -17
37 -17 47 1 10 16 204 29 240 15 19 -7 23 -16 23 -49 0 -34 4 -42 26 -50 19
-8 37 -7 61 2 35 13 36 12 72 -30 20 -23 44 -42 53 -42 21 0 30 -14 43 -65
l10 -40 59 0 c63 0 72 -7 90 -67 11 -36 118 -17 148 26 19 28 16 30 -113 83
-25 10 -41 26 -55 56 -17 39 -22 42 -61 45 -24 2 -43 7 -43 12 0 5 -14 25 -31
45 -20 23 -33 49 -36 77 -3 24 -18 60 -34 82 -16 22 -29 46 -29 53 0 26 -30
73 -47 73 -9 0 -24 -7 -34 -16 -16 -14 -18 -14 -29 6 -7 13 -10 51 -8 94 3 70
3 71 -23 74 -19 2 -33 -4 -48 -24z m89 -239 c0 -19 -5 -25 -23 -25 -13 0 -28
5 -35 12 -10 10 -7 15 10 25 35 19 48 16 48 -12z"/>
<path d="M1342 4208 c2 -15 10 -23 23 -23 13 0 21 8 23 23 3 18 -1 22 -23 22
-22 0 -26 -4 -23 -22z"/>
<path d="M2450 3775 c-7 -9 -14 -35 -14 -58 -1 -36 2 -42 21 -45 13 -2 42 10
68 28 38 26 46 36 43 58 -3 25 -7 27 -54 30 -37 2 -54 -1 -64 -13z"/>
<path d="M2634 3649 c-10 -17 13 -36 27 -22 12 12 4 33 -11 33 -5 0 -12 -5
-16 -11z"/>
<path d="M6725 3127 c-24 -18 -11 -37 25 -37 34 0 47 15 30 35 -15 19 -31 19
-55 2z"/>
<path d="M3270 7355 c-14 -17 -5 -68 16 -86 10 -8 24 -9 46 -3 25 7 35 18 42
43 8 28 7 36 -9 47 -25 18 -79 18 -95 -1z"/>
<path d="M3755 7110 c-7 -23 10 -50 31 -50 17 0 37 37 30 56 -8 22 -54 17 -61
-6z"/>
<path d="M1742 6438 c-17 -17 -15 -74 4 -92 25 -26 84 -20 117 12 28 26 29 27
43 8 8 -11 14 -30 14 -42 0 -35 17 -37 55 -7 51 40 54 65 13 102 -32 30 -36
30 -133 31 -66 0 -105 -4 -113 -12z"/>
<path d="M1421 6426 c-16 -19 -11 -56 10 -69 39 -24 102 22 76 56 -18 24 -70
32 -86 13z"/>
<path d="M344 5531 c-69 -17 -70 -33 -7 -86 44 -37 50 -39 127 -42 44 -2 97 2
116 9 19 6 47 11 62 10 18 -2 31 4 38 18 12 22 5 59 -11 61 -5 1 -21 3 -36 5
-16 1 -64 8 -108 14 -126 18 -148 19 -181 11z"/>
<path d="M8655 5503 c-12 -11 -15 -26 -11 -47 3 -17 9 -59 12 -93 4 -35 12
-67 18 -72 10 -8 86 -15 128 -12 23 2 32 33 33 126 1 113 0 115 -90 115 -55 0
-78 -4 -90 -17z"/>
<path d="M8945 4850 c3 -5 10 -10 16 -10 5 0 9 5 9 10 0 6 -7 10 -16 10 -8 0
-12 -4 -9 -10z"/>
<path d="M5229 1713 c-9 -10 -26 -26 -38 -36 -18 -14 -20 -21 -11 -37 9 -17
17 -20 48 -14 57 10 81 54 46 88 -20 20 -26 20 -45 -1z"/>
<path d="M1806 1678 c-13 -19 -14 -25 -3 -42 20 -30 35 -31 43 -2 7 27 -3 66
-16 66 -5 0 -16 -10 -24 -22z"/>
<path d="M5988 1603 c-7 -16 -20 -38 -31 -50 -21 -24 -40 -106 -31 -135 3 -10
12 -18 20 -18 8 0 23 -13 32 -30 21 -36 35 -43 58 -26 22 17 13 43 -21 56 -22
8 -25 16 -25 54 0 36 6 52 30 79 32 37 38 65 18 85 -19 19 -38 14 -50 -15z"/>
<path d="M6883 1609 c-40 -25 -49 -53 -29 -84 20 -30 81 -44 101 -24 24 24 30
93 10 112 -22 22 -43 21 -82 -4z"/>
<path d="M5240 1555 c-18 -22 5 -45 46 -45 18 0 38 -6 43 -12 48 -59 61 -78
61 -91 0 -8 8 -25 19 -38 16 -20 21 -21 35 -10 25 21 21 76 -8 94 -14 10 -25
29 -29 52 -3 20 -11 43 -18 51 -16 20 -132 19 -149 -1z"/>
<path d="M7910 1526 c-11 -29 -2 -92 14 -105 14 -12 118 -17 134 -7 18 11 14
61 -6 79 -10 10 -28 17 -39 17 -11 0 -32 9 -46 20 -33 26 -46 25 -57 -4z"/>
<path d="M8322 1453 c4 -42 24 -55 37 -22 11 32 2 59 -21 59 -16 0 -19 -6 -16
-37z"/>
<path d="M1533 1395 c-13 -9 -23 -20 -23 -26 0 -15 51 -31 78 -24 18 4 23 11
20 33 -4 33 -41 41 -75 17z"/>
<path d="M5823 1393 c-17 -6 -16 -24 0 -47 17 -23 47 -11 47 19 0 23 -23 36
-47 28z"/>
<path d="M8080 1378 c0 -7 4 -19 9 -27 12 -19 43 -6 39 16 -4 21 -48 31 -48
11z"/>
<path d="M4208 973 c-5 -7 -8 -20 -6 -30 3 -15 17 -19 101 -23 92 -5 98 -6
110 -30 8 -15 23 -26 38 -28 28 -3 42 9 53 45 6 19 2 25 -21 33 -15 6 -41 17
-58 25 -39 19 -203 25 -217 8z"/>
</g>
</svg>
